<?xml version="1.0" encoding="UTF-8"?>
<svg width="30px" height="30px" viewBox="0 0 30 30" version="1.1" xmlns="http://www.w3.org/2000/svg" xmlns:xlink="http://www.w3.org/1999/xlink">
    <!-- Generator: Sketch 52.4 (67378) - http://www.bohemiancoding.com/sketch -->
    <title>wodezuhe copy 5</title>
    <desc>Created with Sketch.</desc>
    <g id="Page-1" stroke="none" stroke-width="1" fill="none" fill-rule="evenodd">
        <g id="可视化组件-应用场景--交互设计-V1.1.6" transform="translate(-1156.000000, -11058.000000)" fill="#FFFFFF">
            <path d="M1171.76985,11058.1736 L1185.03385,11064.5011 C1185.62542,11064.7829 1186,11065.3639 1186,11065.9999 C1186,11066.6362 1185.62542,11067.2171 1185.03385,11067.4989 L1171.76985,11073.8263 C1171.28475,11074.0579 1170.71525,11074.0579 1170.23015,11073.8263 L1156.96615,11067.4989 C1156.37443,11067.2171 1156,11066.6362 1156,11065.9999 C1156,11065.3639 1156.37443,11064.7829 1156.96615,11064.5011 L1170.23015,11058.1736 C1170.71525,11057.9421 1171.28475,11057.9421 1171.76985,11058.1736 Z M1184,11071 L1185.03398,11071.4261 C1185.62556,11071.7061 1186,11072.2832 1186,11072.915 C1186,11073.5468 1185.62556,11074.1239 1185.03398,11074.4039 L1171.76943,11080.8275 C1171.28431,11081.0575 1170.71495,11081.0575 1170.22979,11080.8275 L1156.96528,11074.5424 C1156.37413,11074.2623 1156,11073.6855 1156,11073.054 C1156,11072.4224 1156.37413,11071.8455 1156.96528,11071.5653 L1158.28918,11071 L1170.22979,11076.8849 C1170.71495,11077.115 1171.28431,11077.115 1171.76943,11076.8849 L1184,11071 Z M1184,11078 L1185.03398,11078.4261 C1185.62556,11078.7061 1186,11079.2832 1186,11079.915 C1186,11080.5468 1185.62556,11081.1239 1185.03398,11081.4039 L1171.76943,11087.8275 C1171.28431,11088.0575 1170.71495,11088.0575 1170.22979,11087.8275 L1156.96528,11081.5424 C1156.37413,11081.2623 1156,11080.6855 1156,11080.054 C1156,11079.4224 1156.37413,11078.8455 1156.96528,11078.5653 L1158.28918,11078 L1170.22979,11083.8849 C1170.71495,11084.115 1171.28431,11084.115 1171.76943,11083.8849 L1184,11078 Z" id="wodezuhe-copy-5"></path>
        </g>
    </g>
</svg>