<?xml version="1.0" standalone="no"?><!DOCTYPE svg PUBLIC "-//W3C//DTD SVG 1.1//EN" "http://www.w3.org/Graphics/SVG/1.1/DTD/svg11.dtd"><svg t="1678689807817" class="icon" viewBox="0 0 1026 1024" version="1.1" xmlns="http://www.w3.org/2000/svg" p-id="6341" xmlns:xlink="http://www.w3.org/1999/xlink" width="200.390625" height="200"><path d="M402.56 542.72a128 128 0 0 1 0-16 116.48 116.48 0 0 1 95.36-115.84l58.24-80A198.4 198.4 0 0 0 345.6 622.08zM615.68 466.56a115.84 115.84 0 0 1 17.28 60.16 119.04 119.04 0 0 1-33.92 83.2 114.56 114.56 0 0 1-81.92 34.56 90.88 90.88 0 0 1-26.88-4.48l-50.56 70.4a192 192 0 0 0 77.44 16 198.4 198.4 0 0 0 196.48-199.68 200.96 200.96 0 0 0-48-128z" fill="#1296db" p-id="6342"></path><path d="M248.96 756.48a380.16 380.16 0 0 1-90.88-84.48 512 512 0 0 1-73.6-145.28A512 512 0 0 1 158.08 384a396.16 396.16 0 0 1 128-106.88A490.88 490.88 0 0 1 512 225.28a566.4 566.4 0 0 1 111.36 10.88l51.84-72.32A632.96 632.96 0 0 0 512 142.72a571.52 571.52 0 0 0-261.76 58.24 474.24 474.24 0 0 0-156.8 128 512 512 0 0 0-69.76 128A352 352 0 0 0 0 526.72a401.28 401.28 0 0 0 24.96 72.32 556.8 556.8 0 0 0 69.76 128 484.48 484.48 0 0 0 106.24 98.56zM1001.6 455.04a540.16 540.16 0 0 0-70.4-128 458.24 458.24 0 0 0-133.12-115.2l-48.64 64A384 384 0 0 1 867.84 384a512 512 0 0 1 72.96 142.72 512 512 0 0 1-72.96 145.28 378.88 378.88 0 0 1-128 106.88 492.8 492.8 0 0 1-227.84 49.28 548.48 548.48 0 0 1-144.64-19.2L320 880a598.4 598.4 0 0 0 192 30.72 570.24 570.24 0 0 0 261.12-57.6 477.44 477.44 0 0 0 156.8-128 537.6 537.6 0 0 0 70.4-128A467.2 467.2 0 0 0 1024 527.36a467.2 467.2 0 0 0-22.4-72.32zM134.592 951.232L803.328 33.152l62.208 45.312L196.736 996.48z" fill="#1296db" p-id="6343"></path></svg>