<?xml version="1.0" standalone="no"?><!DOCTYPE svg PUBLIC "-//W3C//DTD SVG 1.1//EN" "http://www.w3.org/Graphics/SVG/1.1/DTD/svg11.dtd"><svg t="1678687948012" class="icon" viewBox="0 0 1024 1024" version="1.1" xmlns="http://www.w3.org/2000/svg" p-id="9755" xmlns:xlink="http://www.w3.org/1999/xlink" width="200" height="200"><path d="M736 460.8c-89.6 0-179.2-25.6-262.4-51.2C396.8 390.4 320 371.2 256 371.2c-76.8 0-128 51.2-128 51.2-19.2 12.8-44.8 12.8-64-6.4-19.2-19.2-19.2-44.8 0-64 0 0 76.8-76.8 192-76.8 76.8 0 160 25.6 243.2 51.2 76.8 25.6 160 44.8 236.8 44.8 76.8 0 140.8-25.6 140.8-25.6 25.6-12.8 51.2 0 64 25.6 12.8 25.6 0 51.2-25.6 64 0-6.4-83.2 25.6-179.2 25.6z" fill="#1296db" opacity=".1" p-id="9756"></path><path d="M736 716.8c-89.6 0-179.2-25.6-262.4-51.2-76.8-19.2-153.6-38.4-217.6-38.4-76.8 0-128 51.2-128 51.2-19.2 19.2-51.2 19.2-70.4 0-19.2-19.2-19.2-51.2 0-70.4 0 0 76.8-76.8 192-76.8 76.8 0 160 25.6 243.2 51.2 76.8 25.6 160 44.8 236.8 44.8 76.8 0 140.8-25.6 140.8-25.6 25.6-12.8 51.2 0 64 25.6 12.8 25.6 0 51.2-25.6 64 6.4-6.4-76.8 25.6-172.8 25.6z" fill="#1296db" opacity=".1" p-id="9757"></path><path d="M736 288c-83.2 0-172.8-25.6-262.4-51.2C396.8 211.2 320 192 256 192c-83.2 0-134.4 51.2-134.4 57.6-12.8 6.4-38.4 6.4-51.2 0-6.4-12.8-6.4-38.4 0-51.2C76.8 198.4 147.2 128 256 128c76.8 0 160 25.6 236.8 44.8 83.2 25.6 166.4 51.2 243.2 51.2 83.2 0 147.2-32 147.2-32 19.2-6.4 32 0 44.8 12.8 6.4 19.2 0 32-12.8 44.8-6.4 6.4-83.2 38.4-179.2 38.4zM736 576c-83.2 0-172.8-25.6-262.4-51.2C396.8 499.2 320 480 256 480c-83.2 0-134.4 51.2-134.4 57.6-12.8 12.8-32 12.8-44.8 0-12.8-12.8-12.8-38.4-6.4-51.2 0 0 76.8-70.4 185.6-70.4 76.8 0 160 25.6 236.8 44.8 83.2 25.6 166.4 51.2 243.2 51.2 83.2 0 147.2-32 147.2-32 19.2-6.4 32 0 44.8 12.8 6.4 19.2 0 32-12.8 44.8-6.4 6.4-83.2 38.4-179.2 38.4zM800 864c-76.8 0-160-25.6-236.8-44.8-83.2-25.6-166.4-51.2-243.2-51.2-83.2 0-147.2 32-147.2 32-19.2 6.4-32 0-44.8-12.8-6.4-19.2 0-32 12.8-44.8 0 0 76.8-32 172.8-32 83.2 0 172.8 25.6 262.4 51.2 76.8 25.6 153.6 44.8 217.6 44.8 83.2 0 134.4-51.2 134.4-57.6 12.8-12.8 32-12.8 44.8 0 12.8 12.8 12.8 32 0 44.8 6.4 0-64 70.4-172.8 70.4z" fill="#1296db" p-id="9758"></path><path d="M992 224l-128-96v192l128-96zM64 768l128-96v192L64 768z" fill="#1296db" p-id="9759"></path></svg>