<?xml version="1.0" standalone="no"?><!DOCTYPE svg PUBLIC "-//W3C//DTD SVG 1.1//EN" "http://www.w3.org/Graphics/SVG/1.1/DTD/svg11.dtd"><svg t="1678689962987" class="icon" viewBox="0 0 1026 1024" version="1.1" xmlns="http://www.w3.org/2000/svg" p-id="2202" xmlns:xlink="http://www.w3.org/1999/xlink" width="200.390625" height="200"><path d="M1024 512a467.2 467.2 0 0 0-23.68-71.68 551.04 551.04 0 0 0-70.4-124.8 471.04 471.04 0 0 0-156.8-128A568.32 568.32 0 0 0 512 128a570.88 570.88 0 0 0-261.76 57.6 476.16 476.16 0 0 0-156.8 128 512 512 0 0 0-69.76 128A339.2 339.2 0 0 0 0 512a401.28 401.28 0 0 0 24.96 71.68 560 560 0 0 0 69.76 128 467.84 467.84 0 0 0 156.8 128A567.04 567.04 0 0 0 512 896a562.56 562.56 0 0 0 261.12-58.24 467.84 467.84 0 0 0 156.8-128 540.16 540.16 0 0 0 70.4-128A448 448 0 0 0 1024 512z m-83.2 0a503.68 503.68 0 0 1-72.96 144.64 378.88 378.88 0 0 1-128 106.88 492.8 492.8 0 0 1-227.84 49.92 494.72 494.72 0 0 1-225.28-49.28 378.88 378.88 0 0 1-128-106.88A512 512 0 0 1 84.48 512a512 512 0 0 1 73.6-145.92 384 384 0 0 1 128-106.88A490.88 490.88 0 0 1 512 209.92a488.32 488.32 0 0 1 224.64 49.28 394.88 394.88 0 0 1 128 106.88A506.24 506.24 0 0 1 940.8 512zM512 311.04A199.68 199.68 0 1 0 709.76 512 198.4 198.4 0 0 0 512 311.04zM628.48 512a115.84 115.84 0 0 1-33.92 83.2 113.92 113.92 0 0 1-163.2 0 119.04 119.04 0 0 1 0-166.4 115.2 115.2 0 0 1 163.2 0A115.84 115.84 0 0 1 628.48 512z" fill="#1296db" p-id="2203"></path></svg>